<?xml version="1.0" encoding="utf-8"?>
<!-- Generator: Adobe Illustrator 21.1.0, SVG Export Plug-In . SVG Version: 6.00 Build 0)  -->
<svg version="1.1" id="Camada_1" xmlns="http://www.w3.org/2000/svg" xmlns:xlink="http://www.w3.org/1999/xlink" x="0px" y="0px"
	 viewBox="0 0 100 100" style="enable-background:new 0 0 100 100;" xml:space="preserve">
<g>
	<g>
		<path d="M82.4,40.4l-4.9,6.9h11.1v8.4c-2.7,2.1-6.4,3.4-10.5,3.4c-8.9,0-14.8-6.8-14.8-16.1v-0.1c0-8.6,6.1-15.9,14.1-15.9
			c5.5,0,8.8,1.9,12.2,4.8l4.9-6c-4.5-3.9-9.1-6.1-16.7-6.1c-7.3,0-13.5,3.3-17.5,8.5l-3.4-8.3h-9L28.9,65.7V29.5h13.5l3.8-9.3H3
			v9.3h16.2v36.5h9.6h0.1h9.8l2.6-6.5l5-12.7h0L52.2,32l3.2,8.1c-0.1,0.9-0.2,1.9-0.2,2.8v0.1c0,13.1,9,23.1,22.6,23.1
			c7.7,0,13.9-3.2,18.2-7V40.4H82.4z"/>
	</g>
</g>
</svg>
